<svg width="500" height="500" viewBox="0 0 500 500" fill="#584ff6" xmlns="http://www.w3.org/2000/svg">
<path d="M146.198 24.9811L146.236 24.9734L146.275 24.9645C153.079 23.3806 159.939 23.878 167.087 24.9202C169.048 25.2062 171.05 25.5377 173.08 25.8738C178.295 26.7371 183.69 27.6303 189.021 27.8569C200.093 28.5204 209.547 22.2705 217.21 16.6003C227.229 9.24383 237.895 2.28451 249.933 2.52291L249.983 0.0234042L250.083 2.52141C259.893 2.12973 268.944 7.16245 277.414 12.9055L277.438 12.9216L277.462 12.9372C279.242 14.0851 281.008 15.311 282.829 16.5744C283.3 16.901 283.774 17.23 284.253 17.5609C286.562 19.1561 288.956 20.7748 291.443 22.2363C296.418 25.1599 301.908 27.5426 308.182 27.9238L308.223 27.9263L308.264 27.9274C314.81 28.1094 321.243 26.9734 327.383 25.8892C328.021 25.7765 328.657 25.6643 329.289 25.5542C336.103 24.3672 342.595 23.4063 349.144 24.1798L349.202 24.1867L349.26 24.1908C360.247 24.9698 369.833 32.1742 375.854 41.3608L375.888 41.4136L375.926 41.4645C378.417 44.8775 380.403 48.5719 382.481 52.4375C383.409 54.1646 384.356 55.9257 385.374 57.7113C388.584 63.3391 392.387 68.9368 398.255 73.0215L398.308 73.0585L398.363 73.0926C404.287 76.7771 410.874 78.6526 417.176 80.3176C417.721 80.4613 418.262 80.6035 418.801 80.745C424.616 82.2705 430.134 83.7184 435.197 86.2735L435.257 86.3034L435.317 86.3301C445.453 90.7865 452.888 100.187 455.083 110.819L455.097 110.884L455.114 110.949C456.548 116.398 456.778 122.037 457.021 127.989C457.042 128.509 457.063 129.03 457.086 129.555C457.357 135.975 457.768 142.726 460.097 149.251L460.117 149.307L460.14 149.362C462.56 155.24 466.709 159.692 471.062 163.583C472.748 165.09 474.51 166.551 476.228 167.975C476.72 168.383 477.208 168.787 477.69 169.189C479.88 171.017 481.969 172.812 483.863 174.711L483.904 174.753L483.948 174.793C492.411 182.517 498.433 193.121 497.38 204.153L497.374 204.21L497.372 204.267C497.036 211.071 494.606 217.378 491.754 223.975C491.4 224.793 491.039 225.618 490.674 226.449C488.158 232.191 485.51 238.236 484.25 244.676L484.246 244.7L484.242 244.723C483.029 251.607 484.566 258.005 486.79 263.936C487.859 266.786 489.112 269.591 490.322 272.299L490.462 272.613C491.727 275.447 492.938 278.176 493.925 280.896L493.941 280.942L493.96 280.987C498.285 291.602 499.089 303.873 493.282 313.534L493.256 313.577L493.232 313.622C489.948 319.621 485.041 324.339 479.615 329.081C478.751 329.837 477.871 330.595 476.983 331.36C472.393 335.313 467.592 339.449 463.684 344.342L463.67 344.358L463.658 344.375C459.452 349.826 457.922 356.064 457.256 362.198C456.923 365.261 456.8 368.36 456.687 371.346L456.677 371.602C456.567 374.526 456.46 377.335 456.184 380.049L456.18 380.094L456.177 380.138C455.411 391.823 451.077 403.657 441.416 410.203L441.377 410.229L441.339 410.257C435.955 414.207 429.688 416.352 422.942 418.238C421.587 418.617 420.205 418.986 418.808 419.36C413.385 420.811 407.728 422.325 402.47 424.68C396.56 427.255 392.249 431.513 388.79 436.238C385.864 440.236 383.459 444.7 381.226 448.846C380.842 449.558 380.464 450.261 380.088 450.95L380.081 450.964L380.074 450.978C374.471 461.583 366.746 471.65 355.269 474.576L355.241 474.583L355.213 474.591C348.432 476.487 341.527 476.199 334.341 475.239C331.815 474.902 329.191 474.468 326.525 474.027C321.835 473.251 317.011 472.453 312.346 472.119C302.489 471.168 293.441 475.605 286.252 480.906C285.69 481.308 285.129 481.711 284.568 482.113C274.454 489.373 264.473 496.536 252.495 497.37L252.467 497.372L252.438 497.375C242.085 498.335 232.151 493.637 223.357 487.585L223.327 487.564L223.296 487.544C221.422 486.334 219.562 485.035 217.644 483.696C217.166 483.362 216.683 483.025 216.196 482.687C213.782 481.009 211.277 479.305 208.673 477.774C203.463 474.711 197.706 472.244 191.111 471.971L191.076 471.969L191.041 471.969C184.709 471.883 178.449 472.99 172.466 474.048C171.496 474.22 170.533 474.39 169.578 474.553C162.621 475.746 155.989 476.618 149.321 475.578L149.276 475.571L149.232 475.566C137.57 474.174 128.063 465.607 122.127 455.492L122.098 455.442L122.067 455.394C120.521 453.018 119.113 450.472 117.672 447.822C117.517 447.536 117.361 447.249 117.204 446.96C115.925 444.602 114.606 442.172 113.176 439.828C109.96 434.553 106.036 429.46 100.168 425.959L100.126 425.933L100.082 425.91C94.0297 422.616 87.4033 420.84 81.1092 419.152C80.8009 419.07 80.4933 418.987 80.1867 418.905C73.5124 417.111 67.2255 415.332 61.6373 411.975L61.5842 411.944L61.5295 411.914C51.7817 406.699 45.709 396.385 44.1912 385.537L44.1817 385.469L44.1685 385.402C43.2986 380.97 43.1327 376.458 42.9587 371.723C42.9055 370.274 42.8514 368.804 42.7762 367.309C42.4622 361.069 41.7701 354.565 38.9042 348.388L38.8707 348.316L38.8327 348.246C35.8021 342.672 31.3676 338.404 26.8941 334.565C25.6789 333.522 24.4716 332.519 23.2829 331.531C19.993 328.796 16.8454 326.18 14.0655 323.175L14.0222 323.128L13.9766 323.083C6.08847 315.383 1.24636 304.614 2.78548 293.988L2.79402 293.929L2.79974 293.87C3.43707 287.266 5.96661 281.144 8.7924 274.697C8.98 274.269 9.16905 273.839 9.35886 273.408C11.9778 267.455 14.7429 261.169 15.8895 254.378L15.8954 254.343L15.9003 254.307C16.8388 247.592 15.2498 241.367 13.0478 235.59C12.0185 232.889 10.8313 230.228 9.68212 227.653C9.60367 227.477 9.5254 227.301 9.44736 227.126C8.21437 224.361 7.03773 221.691 6.07422 219.026L6.05441 218.971L6.03208 218.917C1.64082 208.34 0.902521 196.054 6.6869 186.374L6.7117 186.333L6.73489 186.29C9.95664 180.392 14.7554 175.736 20.0782 171.078C21.0316 170.244 22.0059 169.407 22.9898 168.561C27.4004 164.771 32.0072 160.812 35.818 156.192L35.8248 156.184C40.0561 151.01 41.7581 145.008 42.5463 139.055C42.9399 136.082 43.111 133.074 43.2402 130.161C43.2691 129.509 43.2959 128.865 43.3224 128.226C43.4158 125.974 43.5061 123.797 43.6762 121.662L43.6794 121.621L43.6813 121.581C44.2482 109.554 48.0924 97.2133 57.8316 90.2592L57.8655 90.235L57.8986 90.2097C63.4355 85.9706 69.9574 83.7099 76.9949 81.7244C78.3584 81.3398 79.7479 80.9642 81.1527 80.5845C86.8634 79.041 92.8283 77.4288 98.3345 74.8562C104.534 71.9621 108.84 67.2401 112.285 62.1312C114.479 58.8785 116.447 55.2559 118.313 51.8192C119.301 50.0005 120.261 48.234 121.211 46.6018L121.226 46.5753L121.241 46.5484C126.794 36.4428 134.99 27.2231 146.198 24.9811Z" stroke="#FDE694" stroke-width="0"/>
</svg>
